<svg xmlns="http://www.w3.org/2000/svg" width="25.5" height="13.608" viewBox="0 0 25.5 13.608">
  <path id="Path_13886" data-name="Path 13886" d="M2592.149,944.764c-.886-.107-1.689-.209-2.493-.3q-3.967-.446-7.934-.883c-2.265-.249-4.531-.488-6.8-.734a4.8,4.8,0,0,1-.542-.092.977.977,0,0,1-.788-.965.923.923,0,0,1,.825-.973c1.418-.182,2.841-.336,4.262-.5q2.975-.335,5.951-.663,2.9-.322,5.8-.64c.541-.06,1.08-.13,1.711-.206-.2-.368-.359-.655-.522-.938-.316-.549-.629-1.1-.956-1.641a.735.735,0,0,1,.112-1.07.788.788,0,0,1,1.088.087c.707.61,1.418,1.215,2.126,1.822q2.3,1.969,4.591,3.941c.676.584.678.966.007,1.544q-3.315,2.856-6.64,5.7a1.91,1.91,0,0,1-.235.186.755.755,0,0,1-.968-.056.673.673,0,0,1-.153-.9c.37-.652.755-1.3,1.13-1.945C2591.858,945.312,2591.978,945.079,2592.149,944.764Z" transform="translate(-2573.597 -934.983)" fill="#3887fe" opacity="0.5"/>
</svg>
