<svg xmlns="http://www.w3.org/2000/svg" width="29.306" height="19.265" viewBox="0 0 29.306 19.265">
  <path id="Path_25840" data-name="Path 25840" d="M29.049,65.663A26.574,26.574,0,0,1,21.333,59.9a.483.483,0,0,0-.772.051c-.1-.051-.154-.1-.206-.1-.617,0-.669.926-.669,1.337-.051.926-.1,1.8-.1,2.726a112.564,112.564,0,0,1-16.1-.823.589.589,0,0,0-.669.309.309.309,0,0,0-.206.051,14.017,14.017,0,0,0-1.286,1.183c-.411.36-.72.823-1.132,1.132a.43.43,0,0,0,0,.72A36.563,36.563,0,0,0,.3,72.3c.051.566.874.669,1.029.257h.051a101.678,101.678,0,0,0,15.328.206c-.874,1.7-.206,3.6.1,5.5.051.309.257.411.463.36,0,.309.309.514.566.257,3.138-3.035,6.841-4.938,10.339-7.407a.483.483,0,0,0-.257-.874c.566-1.234.874-2.572,1.337-3.858a.388.388,0,0,0-.051-.411A.43.43,0,0,0,29.049,65.663Zm-9.258-.669a.559.559,0,0,0,.514-.36.466.466,0,0,0,.309-.463,19.993,19.993,0,0,1,.206-2.469,3.005,3.005,0,0,1,.1-.669,24.023,24.023,0,0,0,6.944,5.246,28.025,28.025,0,0,1-4.012,3.395c-1.08.772-2.315,1.44-3.343,2.263v-.154a22.348,22.348,0,0,0-.051-2.623.484.484,0,0,0-.514-.772C14.6,69.109,9.4,68.183,4,68.543q-.154-2.16-.154-4.321A97.424,97.424,0,0,0,19.79,64.994ZM17.784,77.9c-.309-1.8-.977-3.806-.257-5.555.051-.1,0-.154-.051-.206a.466.466,0,0,0-.463-.309,105.794,105.794,0,0,0-15.636.206H1.325c-.206-1.8-.36-3.652-.411-5.452a1.124,1.124,0,0,0,.154-.257,4.381,4.381,0,0,1,.874-1.286c.257-.309.566-.617.823-.977A29.4,29.4,0,0,0,3.177,68.8a.45.45,0,0,0,.463.309.238.238,0,0,0,.257.154c4.886.463,10.956,2.006,15.791.36-.1.72-.206,1.389-.309,2.109a4.917,4.917,0,0,0-.154,1.543.4.4,0,0,0,.36.566.547.547,0,0,0,.617-.1l.051-.051h.154a.236.236,0,0,0,.257-.309,26.159,26.159,0,0,0,7.15-5.246c-.257.977-.463,1.955-.669,2.932A26.255,26.255,0,0,0,17.784,77.9Z" transform="translate(0.002 -59.733)" fill="#3887fe"/>
</svg>
