<svg id="Group_5110" data-name="Group 5110" xmlns="http://www.w3.org/2000/svg" width="44.133" height="37.972" viewBox="0 0 44.133 37.972">
  <path id="Path_13881" data-name="Path 13881" d="M1071.748,1734.8v.988c0,5.659-.018,11.317.019,16.976.006.846-.251,1.042-1.065,1.037-5.63-.035-11.259-.018-16.889-.018h-1c-.021-.357-.051-.634-.051-.91,0-6-.016-12.007,0-18.01a18.949,18.949,0,0,1,16.268-18.8c.844-.125,1.7-.147,2.637-.224v6.369a12.641,12.641,0,0,0-10.277,5.428c-1.562,2.188-2.458,5.211-2.129,7.162h12.48Z" transform="translate(-1052.759 -1715.831)" fill="#3887fe"/>
  <path id="Path_13882" data-name="Path 13882" d="M1217.79,1715.767v6.381a12.63,12.63,0,0,0-10.211,5.333,12.152,12.152,0,0,0-2.33,7.223h12.515v18.98c-.26.012-.536.036-.812.036-5.717,0-11.434-.013-17.151.019-.761,0-.967-.2-.964-.963.031-5.975,0-11.951.023-17.926a18.985,18.985,0,0,1,16.246-18.839C1215.955,1715.88,1216.818,1715.852,1217.79,1715.767Z" transform="translate(-1173.658 -1715.767)" fill="#3887fe"/>
</svg>
