<svg id="Group_36480" data-name="Group 36480" xmlns="http://www.w3.org/2000/svg" width="60.774" height="45.308" viewBox="0 0 60.774 45.308">
  <path id="Path_26700" data-name="Path 26700" d="M60.749,28.158a1.079,1.079,0,0,0-.043-.175c-.008-.022-.007-.045-.016-.067a1.049,1.049,0,0,0-.093-.136,1.025,1.025,0,0,0-.1-.145,1.091,1.091,0,0,0-.222-.182c-.029-.019-.049-.049-.08-.066-.007,0-.014,0-.021-.006a1.105,1.105,0,0,0-.4-.117c-.031,0-.061.009-.092.008a1.072,1.072,0,0,0-.3.027l-.032.009h0L.813,43.382A1.1,1.1,0,0,0,.769,45.5l21.767,6.96.009.013-2.993,13.61a1.106,1.106,0,0,0,1.079,1.343,1.116,1.116,0,0,0,.544-.142l8.3-4.691,6.511,9.5a1.107,1.107,0,0,0,.912.48l.064,0a1.1,1.1,0,0,0,.913-.587l22.778-43.1c.014-.028.013-.058.025-.086a1.087,1.087,0,0,0,.072-.242,1.029,1.029,0,0,0,.02-.165A1.084,1.084,0,0,0,60.749,28.158ZM4.987,44.528l47.889-13.15-29.8,18.935ZM22.242,64.141l2.016-9.168,3.967,5.788ZM36.78,69.332,24.909,52.011l.055-.251c0-.01,0-.018,0-.028l31.793-20.2Z" transform="translate(0 -27.263)" fill="#3887fe"/>
</svg>
