<svg xmlns="http://www.w3.org/2000/svg" width="19.885" height="14.287" viewBox="0 0 19.885 14.287">
  <path id="mail-svgrepo-com" d="M19.885,42.4a1.014,1.014,0,0,0-1.014-1.014H1.014A1.014,1.014,0,0,0,0,42.4V54.659a1.014,1.014,0,0,0,1.014,1.014H18.871a1.014,1.014,0,0,0,1.014-1.014Zm-2.029,2.066a1.019,1.019,0,0,1-.358.776l-3.89,3.312L17.5,51.869a1.008,1.008,0,0,1-.654,1.776h-.009a1.037,1.037,0,0,1-.672-.247l-4.124-3.511L10.6,51.115a1.015,1.015,0,0,1-1.315,0L7.841,49.886,3.724,53.392a1.061,1.061,0,0,1-.688.253,1.008,1.008,0,0,1-.654-1.776l3.894-3.315L2.441,45.288a1.172,1.172,0,0,1-.412-.892.981.981,0,0,1,1.617-.747l5.976,5.089a.5.5,0,0,0,.641,0l5.976-5.089a.981.981,0,0,1,1.617.747v.071Z" transform="translate(0 -41.386)" fill="#636363"/>
</svg>
