<svg width="35" height="34" viewBox="0 0 35 34" fill="none" xmlns="http://www.w3.org/2000/svg">
<path d="M16.3658 10.6358C16.5249 10.4767 16.684 10.4237 16.8961 10.4237L23.26 10.4237C23.6843 10.4237 24.0025 10.7419 24.0025 11.1662V17.5301C24.0025 17.9544 23.6843 18.2726 23.26 18.2726C22.8358 18.2726 22.5176 17.9544 22.5176 17.5301L22.5176 11.9086L16.8961 11.9086C16.4718 11.9086 16.1536 11.5904 16.1536 11.1662C16.1536 10.954 16.2067 10.7949 16.3658 10.6358Z" fill="#00132F"/>
<path d="M11.0624 22.3034L22.7297 10.6362C23.0479 10.318 23.4722 10.318 23.7903 10.6362C24.1085 10.9544 24.1085 11.3786 23.7903 11.6968L12.1231 23.3641C11.8049 23.6823 11.3806 23.6823 11.0624 23.3641C10.7442 23.0459 10.7442 22.6216 11.0624 22.3034Z" fill="#00132F"/>
</svg>
